<?xml version="1.0" standalone="no"?>
<!DOCTYPE svg PUBLIC "-//W3C//DTD SVG 20010904//EN"
 "http://www.w3.org/TR/2001/REC-SVG-20010904/DTD/svg10.dtd">
<svg version="1.0" xmlns="http://www.w3.org/2000/svg"
 width="128.000000pt" height="128.000000pt" viewBox="0 0 128.000000 128.000000"
 preserveAspectRatio="xMidYMid meet">

<g transform="translate(0.000000,128.000000) scale(0.100000,-0.100000)"
fill="#000000" stroke="none">
<path d="M840 1103 c0 -31 50 -126 83 -161 42 -44 86 -67 100 -53 6 6 26 11
43 11 18 0 35 4 38 9 3 5 -10 29 -29 54 -29 38 -35 54 -35 96 0 27 -5 53 -11
57 -6 3 -28 -2 -50 -11 -36 -17 -41 -17 -82 -1 -53 20 -57 20 -57 -1z"/>
<path d="M500 1066 c-272 -76 -399 -374 -268 -630 27 -52 110 -140 162 -169
144 -84 338 -84 482 0 63 36 141 125 177 200 40 87 49 216 22 309 l-18 59 -12
-29 c-8 -20 -11 -58 -7 -112 5 -94 -16 -215 -29 -159 -4 17 -7 22 -8 13 -1
-22 -17 -23 -25 -2 -12 32 -6 54 14 54 18 0 20 7 20 55 l0 55 -35 0 -35 0 0
-164 0 -165 -32 -25 -33 -25 -3 124 -3 125 -24 0 -25 0 0 -139 c0 -88 -4 -142
-11 -146 -6 -4 -12 -5 -15 -3 -2 3 -7 55 -11 117 -6 106 -7 112 -27 109 -20
-3 -21 -11 -26 -127 -3 -87 -9 -126 -17 -129 -10 -3 -13 23 -13 107 l0 111
-25 0 -25 0 0 -110 c0 -103 -1 -110 -20 -110 -19 0 -20 7 -20 96 0 93 -1 95
-22 92 -22 -3 -23 -8 -26 -96 -2 -68 -6 -92 -15 -89 -7 2 -14 31 -17 73 -4 61
-7 69 -25 69 -17 0 -20 -8 -23 -57 -2 -37 -7 -58 -15 -58 -22 0 -114 68 -144
107 -17 21 -42 61 -56 90 l-26 51 57 -29 c181 -94 460 -6 602 189 42 59 60 74
60 52 0 -20 21 -9 30 15 25 67 24 71 -24 98 -44 25 -45 25 -62 5 -14 -15 -16
-23 -7 -36 8 -13 6 -25 -10 -52 -27 -47 -106 -140 -118 -140 -5 0 -14 10 -18
23 -7 18 -3 29 25 57 19 20 34 45 34 56 0 32 -32 54 -76 54 -37 0 -41 3 -59
42 -36 77 -74 77 -110 0 -18 -40 -22 -42 -62 -42 -32 0 -46 -5 -57 -22 -23
-32 -20 -43 18 -85 25 -29 31 -43 25 -58 -16 -42 -10 -84 15 -101 23 -14 28
-14 71 5 33 14 52 18 64 12 14 -8 12 -11 -12 -20 -110 -42 -237 -41 -311 3
-62 36 -80 73 -74 151 6 74 34 131 96 197 102 110 246 145 413 103 32 -8 63
20 38 35 -47 30 -208 38 -289 16z m204 -284 c25 -2 46 -6 46 -11 0 -4 -15 -22
-34 -40 -34 -33 -34 -33 -20 -73 8 -22 14 -42 14 -44 0 -2 -20 6 -45 18 l-45
22 -45 -22 c-25 -12 -45 -20 -45 -18 0 2 6 22 14 44 14 40 14 40 -20 73 -19
18 -34 37 -34 41 0 4 20 8 45 8 45 0 46 1 66 48 l21 47 18 -45 c17 -43 19 -45
64 -48z m286 -112 c0 -11 -7 -20 -15 -20 -8 0 -15 9 -15 20 0 11 7 20 15 20 8
0 15 -9 15 -20z"/>
<path d="M786 959 c-21 -28 -34 -55 -29 -59 4 -5 32 -10 62 -12 71 -4 83 13
47 66 -14 21 -26 43 -26 47 0 20 -18 6 -54 -42z"/>
<path d="M540 980 c0 -5 5 -10 10 -10 6 0 10 5 10 10 0 6 -4 10 -10 10 -5 0
-10 -4 -10 -10z"/>
<path d="M665 980 c3 -5 8 -10 11 -10 2 0 4 5 4 10 0 6 -5 10 -11 10 -5 0 -7
-4 -4 -10z"/>
<path d="M505 970 c3 -5 8 -10 11 -10 2 0 4 5 4 10 0 6 -5 10 -11 10 -5 0 -7
-4 -4 -10z"/>
<path d="M503 925 c-10 -10 -9 -16 1 -24 10 -8 16 -8 25 3 16 19 -9 40 -26 21z"/>
<path d="M391 901 c-14 -26 8 -54 39 -49 35 5 38 27 3 25 -24 -2 -28 2 -26 21
3 27 -3 28 -16 3z"/>
<path d="M342 841 c2 -7 7 -12 11 -12 12 1 9 15 -3 20 -7 2 -11 -2 -8 -8z"/>
<path d="M330 790 c0 -5 14 -10 31 -10 17 0 28 4 24 10 -3 6 -17 10 -31 10
-13 0 -24 -4 -24 -10z"/>
<path d="M285 781 c-6 -11 9 -23 19 -14 9 9 7 23 -3 23 -6 0 -12 -4 -16 -9z"/>
<path d="M330 750 c0 -5 11 -10 24 -10 14 0 28 5 31 10 4 6 -7 10 -24 10 -17
0 -31 -4 -31 -10z"/>
<path d="M285 710 c-4 -6 16 -10 52 -9 42 0 52 3 38 9 -28 12 -83 12 -90 0z"/>
<path d="M285 670 c7 -12 99 -12 135 0 17 5 -1 8 -58 9 -53 1 -81 -3 -77 -9z"/>
<path d="M350 640 c0 -5 20 -10 45 -10 25 0 45 5 45 10 0 6 -20 10 -45 10 -25
0 -45 -4 -45 -10z"/>
<path d="M285 630 c-4 -6 5 -10 19 -10 14 0 26 5 26 10 0 6 -9 10 -19 10 -11
0 -23 -4 -26 -10z"/>
<path d="M350 600 c0 -5 20 -10 45 -10 25 0 45 5 45 10 0 6 -20 10 -45 10 -25
0 -45 -4 -45 -10z"/>
<path d="M317 454 c-8 -8 1 -24 14 -24 5 0 9 7 9 15 0 15 -12 20 -23 9z"/>
<path d="M377 432 c-21 -23 -21 -31 1 -49 10 -9 11 -12 2 -7 -9 4 -12 3 -7 -2
13 -14 57 -12 57 3 0 7 -4 13 -10 13 -6 0 -6 9 0 24 14 39 -14 50 -43 18z"/>
<path d="M618 133 c6 -2 18 -2 25 0 6 3 1 5 -13 5 -14 0 -19 -2 -12 -5z"/>
</g>
</svg>
